<svg xmlns="http://www.w3.org/2000/svg" viewBox="0 0 32 32" fill="none">
  <defs>
    <linearGradient id="favGrad" x1="0" y1="0" x2="32" y2="32" gradientUnits="userSpaceOnUse">
      <stop stop-color="#8E57E1"/>
      <stop offset="1" stop-color="#32B2FC"/>
    </linearGradient>
  </defs>
  <rect width="32" height="32" rx="8" fill="url(#favGrad)"/>
  <path d="M9 12.5c0-3.1 2.4-5.3 5.7-5.3 1.9 0 3.4.7 4.4 1.8l-1.9 1.7c-.6-.7-1.4-1.1-2.5-1.1-1.7 0-2.9 1.2-2.9 2.9s1.2 2.9 2.9 2.9c1.1 0 1.9-.4 2.5-1.1l1.9 1.7c-1 1.2-2.5 1.8-4.4 1.8-3.3 0-5.7-2.2-5.7-5.3z" fill="#0B0F1A"/>
  <path d="M21.5 7.5h3v10c0 3.6-2.1 5.4-5.5 5.4-.9 0-1.7-.2-2.4-.4v-2.5c.5.2 1.2.3 1.8.3 1.7 0 3-.9 3-3.2V7.5z" fill="#EEF2F8"/>
</svg>
